<?xml version="1.0" standalone="no"?>
<!DOCTYPE svg PUBLIC "-//W3C//DTD SVG 20010904//EN"
 "http://www.w3.org/TR/2001/REC-SVG-20010904/DTD/svg10.dtd">
<svg version="1.0" xmlns="http://www.w3.org/2000/svg"
 width="700.000000pt" height="700.000000pt" viewBox="0 0 700.000000 700.000000"
 preserveAspectRatio="xMidYMid meet">
<metadata>
Created by potrace 1.11, written by Peter Selinger 2001-2013
</metadata>
<g transform="translate(0.000000,700.000000) scale(0.100000,-0.100000)"
fill="#000000" stroke="none">
<path d="M1300 6993 c-141 -22 -301 -102 -393 -198 -86 -89 -133 -164 -175
-284 l-27 -76 -2 -2910 c-2 -2569 -1 -2918 12 -2975 49 -211 187 -383 383
-480 51 -25 81 -35 172 -59 14 -3 1020 -6 2235 -6 2055 0 2214 1 2272 17 165
46 315 154 407 292 36 54 54 94 89 191 l22 60 0 2385 0 2385 -24 50 c-48 101
-115 162 -214 196 -49 16 -134 17 -1304 18 l-1253 1 0 -1395 c0 -767 -2 -1395
-5 -1395 -3 0 -160 155 -350 345 l-345 345 -350 -350 -350 -350 0 1400 0 1400
-182 0 c-101 1 -201 3 -223 6 -63 9 -138 48 -189 99 -40 40 -81 99 -75 107 2
2 -4 14 -11 28 -29 55 -18 198 23 275 43 82 154 164 242 179 17 2 905 5 1973
5 l1944 1 -4 218 c-3 214 -3 218 -31 275 -36 75 -97 136 -172 173 l-60 29
-2005 1 c-1103 1 -2016 0 -2030 -3z"/>
</g>
</svg>
